<mxfile host="app.diagrams.net" modified="2024-01-08T09:38:50.053Z" agent="Mozilla/5.0 (Windows NT 10.0; Win64; x64) AppleWebKit/537.36 (KHTML, like Gecko) Chrome/120.0.0.0 Safari/537.36" etag="zomvomtvpQ4c78ckUUDE" version="22.1.17" type="device">
  <diagram id="C5RBs43oDa-KdzZeNtuy" name="Page-1">
    <mxGraphModel dx="1434" dy="772" grid="1" gridSize="10" guides="1" tooltips="1" connect="1" arrows="1" fold="1" page="1" pageScale="1" pageWidth="827" pageHeight="1169" math="0" shadow="0">
      <root>
        <mxCell id="WIyWlLk6GJQsqaUBKTNV-0" />
        <mxCell id="WIyWlLk6GJQsqaUBKTNV-1" parent="WIyWlLk6GJQsqaUBKTNV-0" />
        <mxCell id="WIyWlLk6GJQsqaUBKTNV-2" value="" style="rounded=0;html=1;jettySize=auto;orthogonalLoop=1;fontSize=11;endArrow=block;endFill=0;endSize=8;strokeWidth=1;shadow=0;labelBackgroundColor=none;edgeStyle=orthogonalEdgeStyle;" parent="WIyWlLk6GJQsqaUBKTNV-1" source="WIyWlLk6GJQsqaUBKTNV-3" edge="1">
          <mxGeometry relative="1" as="geometry">
            <mxPoint x="60" y="160" as="targetPoint" />
          </mxGeometry>
        </mxCell>
        <mxCell id="WIyWlLk6GJQsqaUBKTNV-3" value="Server serves HTML, JS and CSS" style="rounded=1;whiteSpace=wrap;html=1;fontSize=12;glass=0;strokeWidth=1;shadow=0;" parent="WIyWlLk6GJQsqaUBKTNV-1" vertex="1">
          <mxGeometry y="70" width="120" height="40" as="geometry" />
        </mxCell>
        <mxCell id="GkIvgU6gOqJbolOPuiuf-2" value="" style="edgeStyle=orthogonalEdgeStyle;rounded=0;orthogonalLoop=1;jettySize=auto;html=1;" edge="1" parent="WIyWlLk6GJQsqaUBKTNV-1" source="GkIvgU6gOqJbolOPuiuf-0">
          <mxGeometry relative="1" as="geometry">
            <mxPoint x="60" y="310" as="targetPoint" />
          </mxGeometry>
        </mxCell>
        <mxCell id="GkIvgU6gOqJbolOPuiuf-0" value="Fetches database" style="rounded=1;whiteSpace=wrap;html=1;" vertex="1" parent="WIyWlLk6GJQsqaUBKTNV-1">
          <mxGeometry y="160" width="120" height="60" as="geometry" />
        </mxCell>
        <mxCell id="GkIvgU6gOqJbolOPuiuf-4" style="edgeStyle=orthogonalEdgeStyle;rounded=0;orthogonalLoop=1;jettySize=auto;html=1;entryX=0.5;entryY=0;entryDx=0;entryDy=0;" edge="1" parent="WIyWlLk6GJQsqaUBKTNV-1" target="GkIvgU6gOqJbolOPuiuf-3">
          <mxGeometry relative="1" as="geometry">
            <mxPoint x="60" y="370" as="sourcePoint" />
          </mxGeometry>
        </mxCell>
        <mxCell id="GkIvgU6gOqJbolOPuiuf-3" value="FINE" style="ellipse;whiteSpace=wrap;html=1;" vertex="1" parent="WIyWlLk6GJQsqaUBKTNV-1">
          <mxGeometry y="460" width="120" height="80" as="geometry" />
        </mxCell>
        <mxCell id="GkIvgU6gOqJbolOPuiuf-5" value="setEvent()" style="shape=process;whiteSpace=wrap;html=1;backgroundOutline=1;" vertex="1" parent="WIyWlLk6GJQsqaUBKTNV-1">
          <mxGeometry y="310" width="120" height="60" as="geometry" />
        </mxCell>
        <mxCell id="GkIvgU6gOqJbolOPuiuf-10" value="" style="edgeStyle=orthogonalEdgeStyle;rounded=0;orthogonalLoop=1;jettySize=auto;html=1;" edge="1" parent="WIyWlLk6GJQsqaUBKTNV-1" source="GkIvgU6gOqJbolOPuiuf-8" target="GkIvgU6gOqJbolOPuiuf-9">
          <mxGeometry relative="1" as="geometry" />
        </mxCell>
        <mxCell id="GkIvgU6gOqJbolOPuiuf-8" value="setEvent()" style="ellipse;whiteSpace=wrap;html=1;aspect=fixed;" vertex="1" parent="WIyWlLk6GJQsqaUBKTNV-1">
          <mxGeometry x="430" y="60" width="80" height="80" as="geometry" />
        </mxCell>
        <mxCell id="GkIvgU6gOqJbolOPuiuf-12" value="" style="edgeStyle=orthogonalEdgeStyle;rounded=0;orthogonalLoop=1;jettySize=auto;html=1;" edge="1" parent="WIyWlLk6GJQsqaUBKTNV-1" source="GkIvgU6gOqJbolOPuiuf-9" target="GkIvgU6gOqJbolOPuiuf-11">
          <mxGeometry relative="1" as="geometry" />
        </mxCell>
        <mxCell id="GkIvgU6gOqJbolOPuiuf-9" value="&lt;font style=&quot;font-size: 11px;&quot;&gt;mostra una domanda&lt;/font&gt;" style="shape=process;whiteSpace=wrap;html=1;backgroundOutline=1;" vertex="1" parent="WIyWlLk6GJQsqaUBKTNV-1">
          <mxGeometry x="410" y="230" width="120" height="60" as="geometry" />
        </mxCell>
        <mxCell id="GkIvgU6gOqJbolOPuiuf-14" value="vero" style="edgeStyle=orthogonalEdgeStyle;rounded=0;orthogonalLoop=1;jettySize=auto;html=1;" edge="1" parent="WIyWlLk6GJQsqaUBKTNV-1" source="GkIvgU6gOqJbolOPuiuf-11" target="GkIvgU6gOqJbolOPuiuf-13">
          <mxGeometry relative="1" as="geometry" />
        </mxCell>
        <mxCell id="GkIvgU6gOqJbolOPuiuf-22" value="falso" style="edgeStyle=orthogonalEdgeStyle;rounded=0;orthogonalLoop=1;jettySize=auto;html=1;" edge="1" parent="WIyWlLk6GJQsqaUBKTNV-1" source="GkIvgU6gOqJbolOPuiuf-11" target="GkIvgU6gOqJbolOPuiuf-21">
          <mxGeometry relative="1" as="geometry" />
        </mxCell>
        <mxCell id="GkIvgU6gOqJbolOPuiuf-11" value="click sÃ¬" style="rhombus;whiteSpace=wrap;html=1;" vertex="1" parent="WIyWlLk6GJQsqaUBKTNV-1">
          <mxGeometry x="430" y="360" width="80" height="80" as="geometry" />
        </mxCell>
        <mxCell id="GkIvgU6gOqJbolOPuiuf-16" value="" style="edgeStyle=orthogonalEdgeStyle;rounded=0;orthogonalLoop=1;jettySize=auto;html=1;" edge="1" parent="WIyWlLk6GJQsqaUBKTNV-1" source="GkIvgU6gOqJbolOPuiuf-13" target="GkIvgU6gOqJbolOPuiuf-15">
          <mxGeometry relative="1" as="geometry" />
        </mxCell>
        <mxCell id="GkIvgU6gOqJbolOPuiuf-13" value="filtra l&#39;array di persone possibili per uguaglianza" style="rounded=1;whiteSpace=wrap;html=1;" vertex="1" parent="WIyWlLk6GJQsqaUBKTNV-1">
          <mxGeometry x="570" y="370" width="120" height="60" as="geometry" />
        </mxCell>
        <mxCell id="GkIvgU6gOqJbolOPuiuf-26" value="" style="edgeStyle=orthogonalEdgeStyle;rounded=0;orthogonalLoop=1;jettySize=auto;html=1;" edge="1" parent="WIyWlLk6GJQsqaUBKTNV-1" source="GkIvgU6gOqJbolOPuiuf-15" target="GkIvgU6gOqJbolOPuiuf-25">
          <mxGeometry relative="1" as="geometry" />
        </mxCell>
        <mxCell id="GkIvgU6gOqJbolOPuiuf-15" value="rimuove la domanda mostrata su schermo dalle possibili" style="whiteSpace=wrap;html=1;rounded=1;" vertex="1" parent="WIyWlLk6GJQsqaUBKTNV-1">
          <mxGeometry x="570" y="510" width="120" height="60" as="geometry" />
        </mxCell>
        <mxCell id="GkIvgU6gOqJbolOPuiuf-24" value="" style="edgeStyle=orthogonalEdgeStyle;rounded=0;orthogonalLoop=1;jettySize=auto;html=1;" edge="1" parent="WIyWlLk6GJQsqaUBKTNV-1" source="GkIvgU6gOqJbolOPuiuf-21" target="GkIvgU6gOqJbolOPuiuf-23">
          <mxGeometry relative="1" as="geometry" />
        </mxCell>
        <mxCell id="GkIvgU6gOqJbolOPuiuf-21" value="&#xa;&lt;span style=&quot;color: rgb(0, 0, 0); font-family: Helvetica; font-size: 12px; font-style: normal; font-variant-ligatures: normal; font-variant-caps: normal; font-weight: 400; letter-spacing: normal; orphans: 2; text-align: center; text-indent: 0px; text-transform: none; widows: 2; word-spacing: 0px; -webkit-text-stroke-width: 0px; background-color: rgb(251, 251, 251); text-decoration-thickness: initial; text-decoration-style: initial; text-decoration-color: initial; float: none; display: inline !important;&quot;&gt;filtra l&#39;array di persone possibili per differenza&lt;/span&gt;&#xa;&#xa;" style="rounded=1;whiteSpace=wrap;html=1;" vertex="1" parent="WIyWlLk6GJQsqaUBKTNV-1">
          <mxGeometry x="250" y="370" width="120" height="60" as="geometry" />
        </mxCell>
        <mxCell id="GkIvgU6gOqJbolOPuiuf-27" style="edgeStyle=orthogonalEdgeStyle;rounded=0;orthogonalLoop=1;jettySize=auto;html=1;" edge="1" parent="WIyWlLk6GJQsqaUBKTNV-1" source="GkIvgU6gOqJbolOPuiuf-23">
          <mxGeometry relative="1" as="geometry">
            <mxPoint x="470" y="870" as="targetPoint" />
            <Array as="points">
              <mxPoint x="310" y="800" />
              <mxPoint x="470" y="800" />
            </Array>
          </mxGeometry>
        </mxCell>
        <mxCell id="GkIvgU6gOqJbolOPuiuf-23" value="rimuove la domanda mostrata su schermo dalle possibili" style="whiteSpace=wrap;html=1;rounded=1;" vertex="1" parent="WIyWlLk6GJQsqaUBKTNV-1">
          <mxGeometry x="250" y="510" width="120" height="60" as="geometry" />
        </mxCell>
        <mxCell id="GkIvgU6gOqJbolOPuiuf-28" style="edgeStyle=orthogonalEdgeStyle;rounded=0;orthogonalLoop=1;jettySize=auto;html=1;" edge="1" parent="WIyWlLk6GJQsqaUBKTNV-1" source="GkIvgU6gOqJbolOPuiuf-25">
          <mxGeometry relative="1" as="geometry">
            <mxPoint x="470" y="870" as="targetPoint" />
            <Array as="points">
              <mxPoint x="630" y="800" />
              <mxPoint x="470" y="800" />
            </Array>
          </mxGeometry>
        </mxCell>
        <mxCell id="GkIvgU6gOqJbolOPuiuf-25" value="filtra l&#39;array di domande per evitare ridondanze" style="rounded=1;whiteSpace=wrap;html=1;" vertex="1" parent="WIyWlLk6GJQsqaUBKTNV-1">
          <mxGeometry x="570" y="650" width="120" height="60" as="geometry" />
        </mxCell>
        <mxCell id="GkIvgU6gOqJbolOPuiuf-29" value="" style="rhombus;whiteSpace=wrap;html=1;" vertex="1" parent="WIyWlLk6GJQsqaUBKTNV-1">
          <mxGeometry x="430" y="870" width="80" height="80" as="geometry" />
        </mxCell>
      </root>
    </mxGraphModel>
  </diagram>
</mxfile>
